PathFileType        4      (X/Y/Z)      C:\Users\cpontonn\Documents\TRAVAIL - COURS\DIGISPORT\Partage Nico\Partage Nico DIGISPORT\TP OPENSIM - eleves - work\DATA\transformed_Statique.trc         
DataRate	CameraRate	NumFrames	NumMarkers	Units	OrigDataRate	OrigDataStartFrame	OrigNumFrames
100.0	100.0	4	38	mm	100.0	382	610
Frame#	Time	LFHD			LBHD			RFHD			RBHD			C7			T10			CLAV			STRN			LSHO			LRAD			LHUM			LWRB			LWRA			LCAR			RSHO			RRAD			RHUM			RWRB			RWRA			RCAR			LFWT			LBWT			RFWT			RBWT			LKNE			LKNI			LANE			LHEE			LANI			LTAR			LTOE			RKNE			RKNI			RANE			RHEE			RANI			RTAR			RTOE			
		X1	Y1	Z1	X2	Y2	Z2	X3	Y3	Z3	X4	Y4	Z4	X5	Y5	Z5	X6	Y6	Z6	X7	Y7	Z7	X8	Y8	Z8	X9	Y9	Z9	X10	Y10	Z10	X11	Y11	Z11	X12	Y12	Z12	X13	Y13	Z13	X14	Y14	Z14	X15	Y15	Z15	X16	Y16	Z16	X17	Y17	Z17	X18	Y18	Z18	X19	Y19	Z19	X20	Y20	Z20	X21	Y21	Z21	X22	Y22	Z22	X23	Y23	Z23	X24	Y24	Z24	X25	Y25	Z25	X26	Y26	Z26	X27	Y27	Z27	X28	Y28	Z28	X29	Y29	Z29	X30	Y30	Z30	X31	Y31	Z31	X32	Y32	Z32	X33	Y33	Z33	X34	Y34	Z34	X35	Y35	Z35	X36	Y36	Z36	X37	Y37	Z37	X38	Y38	Z38	
382	3.81	95.62452999999994	1792.78564	426.6983600000001	103.54532999999998	1742.73901	287.3891900000001	-40.53797000000005	1795.86707	422.1911900000001	-22.40608000000003	1735.83203	271.8373100000001	20.60589999999997	1613.78308	241.54025000000007	18.79368999999998	1386.59424	171.62347000000008	19.716199999999954	1538.37366	368.8653600000001	16.74780999999995	1362.24023	412.67319000000003	221.83584999999997	1576.42749	294.9279500000001	277.41927999999996	1200.50769	274.51352000000014	217.78220999999996	1206.97778	245.5733900000001	289.85161999999997	961.79083	367.8169600000001	216.73182999999995	963.60803	393.25882000000007	269.5879499999999	890.43286	424.8400300000001	-170.95871000000002	1574.89465	294.9180900000001	-239.28070000000002	1199.96716	270.63733	-185.93065000000004	1202.53967	238.57961000000006	-266.92084000000006	958.42554	365.38791	-204.92516000000006	960.53601	404.38934000000006	-262.60999000000004	888.24323	415.0542	116.83433999999994	1068.30066	439.94702000000007	47.706109999999974	1110.7085	248.01021000000006	-74.35640000000005	1068.66174	447.52243000000004	-33.38248000000003	1110.11304	250.55142000000006	189.51746999999997	564.36505	257.37732000000005	81.30452999999997	521.77979	271.74777000000006	194.84456999999998	107.93744999999998	233.96567000000002	136.95452999999998	27.90688999999999	158.75085000000004	108.34900999999998	112.58707999999999	251.14856	229.80222999999995	44.16119999999998	391.83487	149.03202999999993	45.99374999999997	451.15326	-168.86038000000002	559.23218	290.8398700000001	-79.66033000000003	509.97171	285.13718000000006	-184.68576000000002	99.41946999999999	236.79538999999997	-121.17162000000002	31.25667999999999	160.55811999999997	-93.40094000000003	119.41049999999998	252.94675	-220.76233000000005	40.973709999999976	391.86145	-137.35977000000005	42.57648999999997	452.97668	
383	3.82	95.66133999999994	1792.76294	426.5207200000001	103.52791999999997	1742.76245	287.2608300000001	-40.54899000000005	1795.83997	422.10736000000014	-22.44690000000003	1735.84766	271.7510400000001	20.622999999999973	1613.76929	241.4104000000001	18.80572999999998	1386.5575	171.55449000000007	19.704279999999954	1538.40576	368.71298000000013	16.72147999999995	1362.28162	412.61569000000003	221.81856999999997	1576.44482	294.8065800000001	278.33297999999996	1200.42932	274.4396400000001	217.84122999999997	1206.97168	245.5000000000001	290.7437699999999	961.7663	367.9069500000001	216.81807999999995	963.60901	393.12512000000004	269.67742999999996	890.4361	424.7028800000001	-170.98546000000002	1574.89087	294.81085000000013	-239.25459000000004	1199.96045	270.595	-185.89864000000003	1202.50757	238.56557000000006	-266.88846000000007	958.3905	365.36407	-204.90410000000006	960.51587	404.35251000000005	-262.58191000000005	888.20544	415.00903	116.84842999999994	1068.30603	439.88464000000005	47.75657999999997	1110.70007	247.94420000000005	-74.34194000000005	1068.68298	447.46530000000007	-33.36584000000003	1110.1178	250.49255000000005	189.14501999999996	564.2099	257.49628000000007	81.30859999999997	521.78137	271.7115800000001	195.11268999999996	108.12540999999999	233.95065000000002	136.96128999999996	27.904219999999988	158.73257000000004	108.34952999999997	112.59774999999999	251.15135	229.79958999999994	44.16762999999998	391.82242	149.01973999999996	46.01642999999997	451.15533	-168.86325000000002	559.23651	290.7904700000001	-79.65437000000003	509.96933	285.06143000000003	-184.66199000000003	99.42782999999999	236.79615999999996	-121.15269000000002	31.25736999999999	160.54432999999997	-93.40215000000003	119.42309999999999	252.9133	-220.75516000000005	40.97290999999998	391.86349	-137.36624000000006	42.57388999999997	452.98627	
384	3.83	95.65136999999994	1792.771	426.38458000000014	103.45283999999997	1742.77551	287.06427000000014	-40.54224000000005	1795.83557	422.0112900000001	-22.512160000000033	1735.87354	271.6261000000001	20.57668999999997	1613.76294	241.26698000000007	18.77505999999998	1386.53638	171.44547000000009	19.677249999999955	1538.43481	368.5934400000001	16.73929999999995	1362.33313	412.53702000000004	221.78815999999998	1576.45544	294.6661400000001	278.36864999999995	1200.42358	274.3655100000001	217.89902999999998	1206.95496	245.38324000000011	290.04790999999994	961.82556	367.5929600000001	216.90278999999995	963.59106	393.01608000000004	269.79079999999993	890.43683	424.57294000000013	-171.01440000000002	1574.89709	294.7099300000001	-239.25682000000003	1199.94434	270.60794	-185.89984000000004	1202.51404	238.55101000000005	-266.8661200000001	958.37201	365.32706	-204.86295000000007	960.49127	404.33841000000007	-262.53720000000004	888.1792	414.96381	116.84887999999994	1068.32593	439.83804000000003	47.754169999999974	1110.71619	247.91472000000005	-74.32086000000005	1068.68884	447.3853500000001	-33.351910000000025	1110.12073	250.41028000000006	189.53103999999996	564.34753	257.2429200000001	81.32419999999998	521.77179	271.65567000000004	194.85898999999998	107.92274999999998	233.94464000000002	136.97840999999997	27.90592999999999	158.74629000000002	108.35796999999997	112.59482999999999	251.14343	229.80152999999996	44.16918999999998	391.82983	149.02521999999993	46.01835999999997	451.15128	-168.84328000000002	559.22607	290.74619000000007	-79.64141000000002	509.95972	285.03915000000006	-184.68748000000002	99.44451999999998	236.77097999999998	-121.16090000000001	31.25175999999999	160.55559999999997	-93.40477000000003	119.40190999999999	252.91544	-220.76436000000007	40.96846999999998	391.84741	-137.35585000000006	42.57932999999997	452.97427	
385	3.84	95.64947999999994	1792.78918	426.2247000000001	103.40754999999997	1742.80481	286.91266000000013	-40.54946000000005	1795.81555	421.9127800000001	-22.574780000000032	1735.87195	271.4910600000001	20.57079999999997	1613.75012	241.13258000000008	18.75071999999998	1386.51843	171.3589800000001	19.658709999999953	1538.46057	368.45084000000014	16.74251999999995	1362.38281	412.47400000000005	221.75028999999998	1576.45801	294.5196500000001	278.4214799999999	1200.44299	274.2925400000001	217.97912999999997	1206.96399	245.30957000000012	292.07363999999995	961.74573	367.3370400000001	216.99181999999993	963.58984	392.9252900000001	269.93825999999996	890.4339	424.4419600000001	-171.04170000000002	1574.89209	294.6179800000001	-239.22600000000003	1199.92615	270.61069	-185.86046000000002	1202.48621	238.55399000000006	-266.8495500000001	958.38116	365.31766	-204.82451000000006	960.46344	404.27792000000005	-262.50653000000005	888.16364	414.93967	116.84620999999994	1068.3374	439.77151000000003	47.80676999999997	1110.70874	247.83841000000007	-74.30389000000005	1068.70996	447.3288600000001	-33.30801000000003	1110.09619	250.37054000000006	189.54688999999996	564.35181	257.22522000000004	81.32336999999997	521.77936	271.62311000000005	195.12729999999996	108.12208999999999	233.93019000000004	136.96097999999998	27.90625999999999	158.74294000000003	108.35448999999997	112.58156999999999	251.14079	229.80076999999994	44.15792999999998	391.82294	149.02678999999995	46.03444999999997	451.15143	-168.83647000000002	559.23419	290.69592000000006	-79.62143000000003	509.96783	284.99884000000003	-184.68692000000001	99.42450999999998	236.77776999999998	-121.16138000000001	31.25289999999999	160.54943999999998	-93.40748000000004	119.40215999999998	252.92349	-220.76112000000006	40.975389999999976	391.85461	-137.34853000000007	42.56600999999997	452.97495	
